<?xml version="1.0" encoding="iso-8859-1"?>
<!-- Generator: Adobe Illustrator 19.0.0, SVG Export Plug-In . SVG Version: 6.00 Build 0)  -->
<svg xmlns="http://www.w3.org/2000/svg" xmlns:xlink="http://www.w3.org/1999/xlink" version="1.1" id="Capa_1" x="0px" y="0px" viewBox="0 0 520 520" style="enable-background:new 0 0 520 520;" xml:space="preserve" width="512" height="512">
<g id="XMLID_1151_">
	<path id="XMLID_1152_" style="fill:#56545C;" d="M383,355h-53c-8.284,0-15-6.716-15-15s6.716-15,15-15h53c28.673,0,52-23.327,52-52   v-93c0-8.284,6.716-15,15-15s15,6.716,15,15v93C465,318.215,428.215,355,383,355z"/>
	<path id="XMLID_1153_" style="fill:#EEEEEE;" d="M420,95c-8.284,0-15-6.716-15-15V40c0-8.284,6.716-15,15-15s15,6.716,15,15v40   C435,88.284,428.284,95,420,95z"/>
	<path id="XMLID_1154_" style="fill:#E0E0E0;" d="M480,95c-8.284,0-15-6.716-15-15V40c0-8.284,6.716-15,15-15s15,6.716,15,15v40   C495,88.284,488.284,95,480,95z"/>
	<path id="XMLID_1155_" style="fill:#5C6BC0;" d="M395,65c-8.284,0-15,6.716-15,15v70c0,3.509,1.23,6.907,3.477,9.603l25,30   c2.85,3.42,7.071,5.397,11.523,5.397h30l10.008-65L450,65H395z"/>
	<path id="XMLID_1156_" style="fill:#3949AB;" d="M505,65h-55v130h30c4.452,0,8.674-1.978,11.523-5.397l25-30   C518.77,156.907,520,153.509,520,150V80C520,71.716,513.284,65,505,65z"/>
	<path id="XMLID_1157_" style="fill:#5C6BC0;" d="M100,0c-2.72,0-5.39,0.74-7.72,2.14l-50,30C37.76,34.85,35,39.73,35,45v395   c0,8.28,6.72,15,15,15h140l10.008-227.317L190,0H100z"/>
	<path id="XMLID_1158_" style="fill:#3949AB;" d="M337.72,32.14l-50-30c-2.33-1.4-5-2.14-7.72-2.14h-90v455h140   c8.28,0,15-6.72,15-15V45C345,39.73,342.24,34.85,337.72,32.14z"/>
	<path id="XMLID_1159_" style="fill:#56545C;" d="M50,425c-3.581,0-7.043,1.281-9.762,3.611l-35,30C1.913,461.461,0,465.621,0,470   v35c0,8.284,6.716,15,15,15h175l10.008-47.5L190,425H50z"/>
	<path id="XMLID_1160_" style="fill:#3E3E42;" d="M374.762,458.611l-35-30c-2.719-2.33-6.181-3.611-9.762-3.611H190v95h175   c8.284,0,15-6.716,15-15v-35C380,465.621,378.087,461.461,374.762,458.611z"/>
	<path id="XMLID_1161_" style="fill:#EEEEEE;" d="M110,65c-8.284,0-15,6.716-15,15v80c0,8.284,6.716,15,15,15h80l10.008-56L190,65   H110z"/>
	<path id="XMLID_1162_" style="fill:#E0E0E0;" d="M270,65h-80v110h80c8.284,0,15-6.716,15-15V80C285,71.716,278.284,65,270,65z"/>
	<polygon id="XMLID_1163_" style="fill:#3949AB;" points="35,205 35,235 190,235 200.008,221 190,205  "/>
	<rect id="XMLID_1164_" x="190" y="205" style="fill:#283593;" width="155" height="30"/>
	<path id="XMLID_1165_" style="fill:#FFF176;" d="M176.293,278.908l-20,45c-2.063,4.64-1.638,10.008,1.13,14.266   c2.767,4.258,7.5,6.826,12.577,6.826h16.919l-10.626,23.908c-3.364,7.57,0.045,16.435,7.615,19.799   c1.98,0.88,4.048,1.297,6.084,1.297c0.003,0,0.005,0,0.008,0l3-59.998l-3-59.998C184.257,270.012,178.776,273.321,176.293,278.908z   "/>
	<path id="XMLID_1166_" style="fill:#FDD835;" d="M222.577,321.826c-2.767-4.258-7.5-6.826-12.577-6.826h-16.919l10.626-23.908   c3.364-7.57-0.045-16.435-7.615-19.799c-1.983-0.881-4.053-1.286-6.092-1.285v119.996c5.743-0.004,11.224-3.324,13.707-8.912l20-45   C225.77,331.452,225.345,326.084,222.577,321.826z"/>
	<circle id="XMLID_3_" style="fill:#4DD0E1;" cx="270" cy="329.999" r="15"/>
	<circle id="XMLID_2_" style="fill:#80DEEA;" cx="110" cy="329.999" r="15"/>
</g>















</svg>
