<svg id="Capa_1" enable-background="new 0 0 512 512" height="512" viewBox="0 0 512 512" width="512" xmlns="http://www.w3.org/2000/svg"><g><g><g><g><path d="m463.918 102.095c-4.267 0-7.726-3.459-7.726-7.726v-65.627c0-4.267 3.459-7.726 7.726-7.726s7.726 3.459 7.726 7.726v65.626c.001 4.268-3.459 7.727-7.726 7.727z" fill="#dbebfc"/></g><g><path d="m414.332 102.095c-4.267 0-7.726-3.459-7.726-7.726v-65.627c0-4.267 3.459-7.726 7.726-7.726s7.726 3.459 7.726 7.726v65.626c0 4.268-3.459 7.727-7.726 7.727z" fill="#dbebfc"/></g></g></g><path d="m423.672 182.472v191.226c0 11.503-9.358 20.861-20.861 20.861s-20.861-9.358-20.861-20.861v-55.115c0-28.544-23.222-51.767-51.767-51.767h-50.435v30.905h50.435c11.503 0 20.861 9.358 20.861 20.861v55.115c0 28.544 23.222 51.767 51.767 51.767 28.544 0 51.767-23.222 51.767-51.767v-191.225z" fill="#dbebfc"/><path d="m63.108 201.187h226.64v269.304h-226.64z" fill="#ecf6fe"/><path d="m289.749 201.187v30.604h-167.92c-3.983 0-7.211 3.229-7.211 7.211v231.489h-51.509v-269.304z" fill="#dbebfc"/><g><path d="m140.768 421.985c-1.643 0-3.299-.522-4.702-1.601-3.384-2.6-4.019-7.451-1.419-10.834l50.707-65.985h-44.581c-3.01 0-5.745-1.748-7.011-4.479s-.829-5.948 1.117-8.244l60.263-71.082c2.759-3.255 7.634-3.657 10.89-.897 3.255 2.76 3.656 7.635.897 10.89l-49.476 58.36h43.583c2.943 0 5.63 1.672 6.931 4.311 1.301 2.64.989 5.789-.804 8.123l-60.263 78.42c-1.522 1.98-3.814 3.018-6.132 3.018z" fill="#8ac9fe"/></g><path d="m334.05 467.49v44.51h-315.24v-44.51c0-3.87 3.13-7 7-7h301.24c3.86 0 7 3.13 7 7z" fill="#fd8087"/><path d="m70.32 460.49v51.51h-51.51v-44.51c0-3.87 3.13-7 7-7z" fill="#fe646f"/><path d="m330.96 30v151.19c0 16.57-13.44 30-30 30h-249.06c-16.57 0-30-13.43-30-30v-151.19c0-16.57 13.43-30 30-30h249.06c16.56 0 30 13.43 30 30z" fill="#fd8087"/><path d="m73.41 211.19h-21.51c-16.57 0-30-13.43-30-30v-151.19c0-16.57 13.43-30 30-30h21.51c-17.07 0-30.9 13.84-30.9 30.91v149.37c0 17.07 13.83 30.91 30.9 30.91z" fill="#fe646f"/><path d="m63.108 162.98v-114.773c0-3.866 3.134-7 7-7h212.64c3.866 0 7 3.134 7 7v114.773c0 3.866-3.134 7-7 7h-212.64c-3.866 0-7-3.134-7-7z" fill="#ecf6fe"/><path d="m289.749 149.376v13.604c0 3.866-3.134 7-7 7h-212.64c-3.866 0-7-3.134-7-7v-114.773c0-3.866 3.134-7 7-7h23.905v108.169z" fill="#dbebfc"/><path d="m244.951 169.98c-.041-35.572-28.876-64.386-64.448-64.386-35.582 0-64.417 28.814-64.458 64.386z" fill="#dbebfc"/><path d="m244.946 169.98h-128.906c.01-7.201 1.195-14.134 3.389-20.604h122.128c2.194 6.47 3.379 13.403 3.389 20.604z" fill="#c9e2fb"/><g><path d="m180.499 145.513c-2.04 0-4.076-.803-5.595-2.397-2.943-3.089-2.825-7.98.265-10.924l56.095-53.446c3.089-2.944 7.979-2.826 10.924.265 2.943 3.089 2.825 7.98-.265 10.924l-56.095 53.446c-1.496 1.425-3.414 2.132-5.329 2.132z" fill="#8ac9fe"/></g><path d="m493.19 91.34v71.13c0 16.57-13.43 30-30 30h-48.13c-16.57 0-30-13.43-30-30v-71.13c0-3.86 3.13-7 7-7h94.13c3.87 0 7 3.14 7 7z" fill="#528fd8"/><path d="m446.87 192.47h-31.81c-16.57 0-30-13.43-30-30v-71.13c0-3.86 3.13-7 7-7h23.91v77.22c0 17.07 13.83 30.91 30.9 30.91z" fill="#0573ce"/></g></svg>